<?xml version="1.0" encoding="utf-8"?>
<!-- Generator: Adobe Illustrator 22.1.0, SVG Export Plug-In . SVG Version: 6.00 Build 0)  -->
<svg version="1.1" id="Layer_1" xmlns="http://www.w3.org/2000/svg" xmlns:xlink="http://www.w3.org/1999/xlink" x="0px" y="0px"
	 viewBox="0 0 1200 1200" style="enable-background:new 0 0 1200 1200;" xml:space="preserve">
<style type="text/css">
	.st0{opacity:0.2;}
</style>
<g class="st0">
	<path d="M0,943.7c2.4,0.2,3.8-1.5,5.3-2.8c10-8.2,19.9-16.6,30-24.7c22.3-17.7,45.5-34.3,68.9-50.4c25.1-17.2,50.1-34.5,75.4-51.2
		c23.6-15.6,47.7-30.6,71.6-45.7c26.6-16.9,53.1-34,78.1-53.1c15.9-12.1,31.3-24.9,45.4-39.2c31.2-31.6,52.1-68.9,63.2-111.9
		c4.4-17.1,7.1-34.4,8.9-52c3.3-32.3,6.7-64.6,12.3-96.6c6.5-36.5,15.9-72.1,30.9-106.2c13.6-30.8,30.4-59.9,49.6-87.5
		c21.9-31.3,46.7-60.1,74.6-86.2c12.8-12,26.1-23.6,39.4-35.1c20.6-18,41.2-36,60.2-55.7C725.9,32.7,737,19.3,747.1,5
		c1.1-1.5,1.8-3.3,2.7-5c33.9,0,67.8,0,101.8,0c-0.9,1.9-1.6,3.9-2.6,5.7c-17.1,29.9-36.3,58.4-58.9,84.5
		c-12.9,14.9-26.7,29-41.3,42.1c-20.5,18.3-41.3,36.4-62,54.5c-44.2,38.5-80.9,83.1-109.2,134.5c-16.2,29.4-27.6,60.5-35.3,93
		c-5.9,24.9-10.1,50.2-13.7,75.5c-2.7,19.2-5.2,38.4-8.7,57.4c-8.3,45-24.4,87-50.4,125c-16.9,24.7-37.1,46.5-60.1,65.6
		c-23.2,19.2-48.2,36-73.9,51.6c-20.4,12.4-41.2,24-62.2,35.2c-36.8,19.7-73.3,39.9-109.4,60.9c-26.7,15.5-53.5,30.9-80,46.7
		c-27.3,16.4-53.7,34.1-79,53.6c-1.5,1.2-3.3,2-4.9,3C0,973.8,0,958.7,0,943.7z"/>
	<path d="M750.7,1200c10.4-15,20.1-30.4,28.9-46.4c22.6-41.3,40.5-84.5,50.5-130.7c3.7-17.4,6.5-34.9,8.4-52.6
		c2.2-20.7,3.3-41.4,4-62.2c0.5-16.5,0.6-32.9,0.4-49.4c-0.2-18.4-0.6-36.8-1-55.2c-0.2-11.4-0.5-22.7-0.8-34.1
		c-0.4-14.5-0.6-29.1-1.1-43.6c-0.5-16.9-1.1-33.9-1.8-50.8c-0.7-15.2-1.6-30.3-2.5-45.5c-0.7-11.3-1.3-22.7-2.2-34
		c-1-12.4-2.1-24.9-3.4-37.3c-1.3-12.4-2.8-24.8-4.1-37.2c-1.3-11.9-2.8-23.8-3.5-35.8c-0.8-13.1-0.7-26.2,0.2-39.3
		c0.9-13.1,2.5-26.1,5.2-39c6.2-29.9,17.2-57.9,33.7-83.7c13.7-21.5,29.2-41.6,45.5-61.2c14.7-17.7,29.5-35.3,44.1-53.2
		c15-18.4,28.3-37.9,39.8-58.7c19.1-34.7,33-71.4,41.5-110.1c2.5-11.5,4.2-23.3,6.2-34.9c0.3-1.7,0.2-3.5,0.3-5.2
		c5.4,0,10.9,0,16.3,0c-0.1,1-0.3,1.9-0.3,2.9c-0.2,6.4-0.5,12.8-0.7,19.2c-0.6,19.1-3,37.9-6.5,56.7
		c-10.2,54.2-30.4,104.3-60.9,150.2c-13.2,19.9-27,39.3-40.6,58.8c-12.8,18.4-25.3,37-36.2,56.5c-10.5,18.7-18.3,38.4-22.5,59.5
		c-4,20.4-5.2,40.9-3.8,61.6c1.2,17.6,4.3,34.9,7.4,52.2c3.9,22,7.5,44.2,10.2,66.4c2.2,18.1,4.4,36.2,6.3,54.3
		c1.3,12.1,2.2,24.2,3.3,36.3c0.9,9.9,1.7,19.8,2.5,29.6c0.5,6.2,0.8,12.4,1.2,18.7c0.5,7.7,1.1,15.3,1.6,23
		c0.4,5.7,0.8,11.5,1.1,17.2c0.8,13.9,1.4,27.8,2.2,41.7c0.8,14.7,1.7,29.4,2.5,44.1c0,0.5,0.1,1,0.1,1.4
		c1.3,29.7,1.7,59.5,0.9,89.2c-0.4,13.6-1.5,27.1-2.6,40.7c-1.8,23.2-5.4,46.1-10.2,68.8c-6.8,31.9-17.1,62.6-29.7,92.6
		c-7.5,17.8-15.8,35.3-25.1,52.3c-1.1,2-2,4-2.9,6C818.6,1200,784.6,1200,750.7,1200z"/>
	<path d="M628.8,0c-1.8,1.4-3.5,2.9-5.3,4C612.3,11,601.1,17.8,590,24.7c-12.7,8-25.5,16-38,24.3c-26.7,17.7-48.5,40.6-67.2,66.4
		c-17.8,24.6-32.1,51.2-44.3,78.9c-11.4,25.9-21.1,52.5-30.8,79.1c-10.5,28.8-21,57.7-33.4,85.8c-15.4,34.9-33.6,68.3-54.7,100.1
		c-20.3,30.4-42.9,58.9-68,85.5c-32.3,34.3-68,64.4-106.9,90.8c-33.8,22.9-69.7,41.7-107.4,57.1c-11,4.5-21.9,8.9-32.9,13.4
		c-2.1,0.8-4.2,1.5-6.3,2.3c0-23.7,0-47.4,0-71c1.5-0.5,3.1-0.7,4.5-1.4c23.5-12.4,46.7-25.3,68.6-40.4
		c38.7-26.7,74-57.4,106.1-91.8c30.2-32.4,56.9-67.5,80.6-104.8c23.9-37.6,43.7-77.4,61.2-118.4c11.7-27.5,23.4-55,35.5-82.4
		c12.6-28.6,26.8-56.3,43.4-82.8C414.7,91.9,431.5,70,451,50.3c17.6-17.8,37-33.4,58.8-46c2.1-1.2,4.3-2.1,5.7-4.3
		C553.3,0,591,0,628.8,0z"/>
	<path d="M938.9,0c-2.2,17.2-6.7,33.9-12.4,50.2c-10.2,28.7-24.3,55.3-40.9,80.8c-17,26.1-36,50.6-56.9,73.6
		c-14.3,15.8-29.1,31.1-43.7,46.6c-10.8,11.4-21.3,23-30.7,35.6c-10.3,13.8-19.2,28.4-24.5,44.9c-5.3,16.7-7.1,33.7-5.7,51.2
		c1.8,22.7,7.3,44.5,14.3,66c5.7,17.8,11.8,35.5,18.2,53.1c16.5,45.4,28.4,92,36.9,139.5c4.2,23.3,7.6,46.7,9.9,70.3
		c1.7,17.2,3,34.4,3.9,51.7c1.2,22.6,1,45.1,0.5,67.7c-0.3,13.1-1.5,26.2-2.5,39.3c-1.4,18.4-3.9,36.6-6.9,54.7
		c-6.9,41.3-19.3,80.8-37.3,118.7c-12.5,26.4-27.3,51.4-44.7,74.9c-9.4,12.8-19.3,25.1-30.4,36.5c-12.5,12.9-26.4,24.2-41.1,34.6
		c-3.5,2.5-7.1,4.9-10.6,7.4c-1.3,0.9-2.5,2-3.7,3c-37.8,0-75.5,0-113.3,0c12-6,23.9-12.3,36-18c16.8-7.9,33.8-15.3,50.6-23.2
		c12.3-5.7,24.3-12.1,35.9-19.3c18-11.1,33.5-25.1,47.9-40.5c17.4-18.5,32.6-38.6,45.5-60.5c19.7-33.5,33.6-69.3,41-107.5
		c4-20.4,6.5-41,7.6-61.8c0.6-10.7,0.8-21.4,0.5-32.1c-0.5-20.3-2.2-40.5-5-60.7c-6.5-45-18.5-88.6-33.6-131.3
		c-13.5-38.4-28.9-75.9-46-112.8c-10.3-22.4-20.1-45-28-68.3c-6.5-19.3-11.6-38.9-14.3-59.1c-1.7-12.4-2-24.9-1.7-37.3
		c0.8-34.1,10.7-65.5,28.8-94.3c10.2-16.2,22.3-30.8,35.6-44.5c15.2-15.6,31.5-30,47.8-44.4c18.2-15.9,35.9-32.3,52.8-49.6
		c22.6-23.2,43.8-47.5,62.1-74.3c11.6-17.1,21.8-35,29.9-54.1c0.9-2,1.4-4.2,2.1-6.3C921.6,0,930.2,0,938.9,0z"/>
	<path d="M341.8,1200c5.9-6.7,11.7-13.6,17.8-20.1c18.5-19.7,39.8-36,62.8-50.3c17.2-10.6,35-20,52.9-29.3
		c7.1-3.7,14.2-7.3,21.3-11.1c29.1-15.8,54.5-36.3,76.6-61c14.1-15.8,26.6-32.8,36.8-51.4c10.7-19.6,19-40.2,25.3-61.6
		c6.9-23.5,11.5-47.5,14.3-71.9c3.1-27.1,3.3-54.3,2.4-81.5c-0.6-21.1-2.5-42.1-7.6-62.8c-3.6-14.9-7.5-29.8-12.1-44.4
		c-7.3-23.5-14.7-47-21.9-70.6c-6.7-22.2-12.5-44.7-16.2-67.6c-1.8-10.9-3.3-21.8-3.6-32.9c-0.2-6.2-0.8-12.5-0.6-18.7
		c0.4-16.5,2.2-32.9,6.6-48.9c0.4-1.5,0.9-3.1,1.6-4.5c0.7-1.5,2.1-2.2,3.5-2c1.4,0.2,2.4,1.3,2.6,3c0.1,1.1,0.1,2.2,0,3.3
		c-0.8,9.5,0.1,18.9,0.9,28.3c2.4,26.7,9.8,52.1,19.2,77.1c7.1,18.9,15.4,37.2,24,55.5c11.6,24.8,23.7,49.3,34.4,74.5
		c9.2,21.7,17,43.8,23.1,66.6c4.2,15.9,8.5,31.8,11.5,48.1c2.4,13.2,4.2,26.5,5.6,39.9c2.1,19.6,2.4,39.3,1.6,59
		c-1.7,40.5-9.7,79.6-26.1,116.9c-11.2,25.4-25.9,48.5-43.6,69.8c-29.9,35.9-65.6,64.5-106.6,86.7c-13.4,7.3-27.3,13.3-41.3,19.4
		c-18.1,7.8-36.1,15.8-53.3,25.4c-7.5,4.2-14.9,8.8-22.2,13.4c-1.6,1-2.8,2.5-4.2,3.8C398.7,1200,370.2,1200,341.8,1200z"/>
	<path d="M197.8,1200c6.9-11,14.8-21.3,22.7-31.5c19-24.4,39.9-47.1,62.8-68c21.5-19.6,43.3-38.9,64.9-58.5
		c13.8-12.5,27.6-24.8,41-37.6c14.8-14.1,29.5-28.5,43.8-43.1c15.8-16.1,30.7-33,44.5-50.9c25.9-33.6,45.8-70.5,60.5-110.2
		c11.5-31,19.6-62.9,25.7-95.3c3.9-20.6,6.6-41.4,9.5-62.1c0.2-1.3,0.3-2.6,0.9-3.7c1-2.4,3.9-2.8,5.4-0.7c1,1.4,1.7,3.1,2.3,4.7
		c3.7,10.2,6.6,20.7,9.1,31.3c4.1,17.1,6.8,34.5,8.5,52.1c1.7,18,1.9,36.1,0.9,54.2c-2.2,40.8-11,80.1-26.6,117.9
		c-16.9,41-41,77.3-71.8,109.2c-18.9,19.5-39.3,37.1-61.1,53.2c-19.4,14.3-39.2,28.3-58.8,42.3c-22,15.7-43.8,31.7-64.6,49
		c-16.4,13.6-32,28-46.8,43.4c-1.3,1.4-2.5,2.9-3.8,4.3C243.8,1200,220.8,1200,197.8,1200z"/>
	<path d="M56.6,1200c0.7-3.8,1.5-7.5,2.1-11.3c5.5-36.6,15.4-71.9,30.1-105.9c7.6-17.6,15.9-35,26.9-50.8c8.2-11.8,17.2-23,27-33.6
		c26.1-27.9,56.2-50.8,88.8-70.5c20-12.1,40.6-23.1,61.3-34c22.2-11.7,44.5-23.3,66.6-35.3c19.4-10.5,38.2-22.2,55.8-35.6
		c19.6-14.9,37.2-31.8,52.4-51.2c0.9-1.1,1.8-2.3,2.8-3.3c1-0.9,2.2-1.3,3.5-0.8c1.3,0.6,2,1.7,2,3c0,1.9-0.1,3.8-0.5,5.7
		c-2.8,14.2-7.3,27.8-13.5,40.9c-9.6,20.2-22,38.6-36.6,55.5c-15.4,17.9-32.6,33.8-50.8,48.8c-24,19.7-49.2,37.8-74.5,55.7
		c-26.6,18.9-53.4,37.6-78.8,58.1c-7.1,5.7-13.9,11.8-20.8,17.8c-3.9,3.3-7.8,6.7-11.5,10.2c-13.8,12.9-24.9,27.9-34.7,43.9
		c-16.6,27.1-28,56.4-35.3,87.3c-0.4,1.7-0.5,3.5-0.7,5.2C97.6,1200,77.1,1200,56.6,1200z"/>
	<path d="M0,757.4c1.6-0.6,3.4-1.1,4.9-1.9c30.7-17,62.3-32,93.7-47.7c28.3-14.2,56.6-28.5,84.2-44.1c32-18,62.9-37.5,91.5-60.7
		c27.2-22.1,51.2-47.4,71-76.3c16.5-24.1,30.1-49.9,39.2-77.7c6.4-19.6,12.1-39.4,18-59.2c8.3-27.7,16.4-55.5,26.1-82.8
		c5.6-15.7,11.7-31.1,18.9-46.2c5-10.4,10.5-20.5,17.4-29.8c1.3-1.8,2.7-3.6,4.1-5.3c0.6-0.7,1.3-1.4,2.1-1.9c1.1-0.8,2.4-0.9,3.6,0
		c1.1,0.9,1.4,2.2,1,3.5c-0.4,1-0.9,2.1-1.5,3c-6.6,10.7-11.5,22.1-15.6,33.9c-7.2,20.4-12.4,41.4-17.1,62.4
		c-6.2,27.6-11.1,55.5-16.4,83.3c-3.8,20-7.3,40-12.8,59.6c-11.7,41.6-30.5,79.6-55.8,114.6c-22.1,30.7-48.4,57.4-77.6,81.4
		c-26.5,21.8-54.5,41.4-83.7,59.4c-26.3,16.2-52.8,32-79.1,48.1c-35.8,21.8-70.7,45-104,70.5c-3.9,3-7.9,5.9-11.9,8.9
		C0,820.8,0,789.1,0,757.4z"/>
	<path d="M265.9,0c-1.2,1.5-2.2,3.1-3.5,4.5c-31,33.9-57.4,71.2-79.3,111.6c-26.7,49.3-45.4,101.5-56.2,156.6
		c-2.1,10.8-3.7,21.8-6.1,32.5c-5.5,25.1-14.1,49.2-24.8,72.5c-9,19.9-19.8,38.8-32.7,56.4c-11.2,15.3-23.8,29.3-38.9,40.9
		c-2.9,2.2-5.9,4.4-9,6.4c-1,0.7-2.2,1.2-3.4,1.6c-1.1,0.4-2.2,0-3-1c-0.8-0.9-1-2.1-0.4-3.2c0.8-1.4,1.8-2.6,2.8-3.9
		c5.8-7.1,11.8-13.9,17.3-21.2c15.7-21,26.6-44.4,34.6-69.2c5.7-17.6,9.4-35.5,12.3-53.7c0.1-0.5,0.2-0.9,0.2-1.4
		c0.1-9.3,1.4-18.5,0.6-27.8c-0.5-6.4-0.5-12.8-1.1-19.1c-0.9-9.2-2.1-18.4-3.4-27.6c-3-22-6.3-44-9.3-66c-2-15.4-3.8-30.8-5.4-46.2
		c-1.1-10-1.6-20.1-2.4-30.1c-1.4-18.5-2-37.1-1.7-55.6c0.3-14.6,1-29.1,2.5-43.6c0.5-4.4,0.7-8.9,1-13.4C76.8,0,97,0,117.1,0
		c-0.3,2.1-0.6,4.1-1,6.2c-3.7,18.2-6.6,36.5-8.1,55c-0.8,9.1-1.5,18.2-1.9,27.3c-0.6,14.2-1.2,28.4-1.4,42.7
		c-0.2,9.6,0.3,19.2,0.5,28.8c0.4,15.7,0.8,31.3,1.3,47c0,1.8,0.3,3.5,0.5,5.2c0.1,0.7,0.5,1.3,0.8,2.1c0.5-0.5,0.9-0.6,0.9-0.9
		c0.4-1.4,0.8-2.8,1.1-4.2c5.8-28.6,13.6-56.6,23.6-84C149,82.9,169.1,43,193.9,5.5c1.1-1.7,2-3.6,2.9-5.5C219.8,0,242.9,0,265.9,0z
		"/>
	<path d="M1200,853.4c-1.2,0.8-2.5,1.5-3.6,2.4c-19.7,15.8-38.7,32.4-56.5,50.4c-31.5,31.9-57.9,67.7-79.6,107
		c-20,36.4-35.6,74.7-47.8,114.4c-6.7,21.7-12.4,43.7-17.4,65.8c-0.5,2.2-1.1,4.3-1.6,6.5c-4.5,0-9,0-13.4,0
		c-0.6-4.9-1.1-9.8-1.8-14.7c-2.4-18.6-3.1-37.3-2.9-56c0.5-60,12.9-117.4,37.3-172.2c22.7-51,54.2-95.9,95.4-133.8
		c20.5-18.9,42.9-35.4,66.7-50c8.3-5.1,16.8-9.9,25.2-14.9C1200,790.1,1200,821.8,1200,853.4z"/>
	<path d="M425.3,0c-1.1,0.9-2.2,1.9-3.3,2.8c-15.8,11.6-29.7,25.2-42.6,40c-23.5,26.9-42.9,56.5-59.5,88.1
		c-15.3,29.1-27.7,59.4-38.1,90.6c-12.5,37.5-26.7,74.4-43,110.4c-14.9,33-31.4,65.1-50.3,96c-12.4,20.2-26.2,39.5-42,57.2
		c-15.9,17.7-33.4,33.5-53.9,45.8c-17.8,10.6-36.7,18-57.2,21.3c-6.9,1.1-14,1.5-21,2.2c-1.1,0.1-2.2,0-3.3-0.3
		c-1.6-0.4-2.7-1.6-2.6-3c0-1.5,0.9-2.4,2.2-2.9c1.2-0.4,2.5-0.6,3.7-0.8c9.4-1.4,18.5-3.4,27.5-6.4c19.3-6.3,36.4-16.4,51.9-29.3
		c15.5-12.9,28.7-27.8,40.4-44.1c10.7-14.8,20-30.5,28.5-46.6c17.8-34.1,32.7-69.5,45.8-105.6c12.8-35.2,23.6-71,33-107.3
		c9.1-35.1,20.8-69.2,35.7-102.3c16.2-35.7,36-69.2,60.1-100.2c1.4-1.7,2.4-3.7,3.5-5.6C369,0,397.1,0,425.3,0z"/>
	<path d="M1200,709.4c-1.5,0.4-3.1,0.6-4.6,1.2c-23.9,9.6-47.6,19.7-70.4,31.8c-19.4,10.3-37.8,22.2-54.3,36.7
		c-13.5,11.8-25.9,24.7-37.6,38.3c-26.4,30.9-47.5,65.1-63.8,102.2c-1,2.2-1.9,4.4-3,6.5c-0.8,1.6-2.2,2.2-3.5,1.9
		c-1.3-0.3-2.3-1.4-2.3-3.2c0-1.7,0.1-3.5,0.4-5.2c3.3-20.6,8.8-40.6,16-60.2c15.1-40.9,36.6-78.1,64.8-111.4
		c16.7-19.6,36.2-36.1,57.1-51c21.1-14.9,43.4-27.7,66.1-39.9c11.7-6.3,23.4-12.5,35.1-18.7C1200,662.1,1200,685.8,1200,709.4z"/>
	<path d="M1200,989.8c-26.9,21.4-51.6,44.9-71.7,72.9c-15.6,21.8-27.3,45.5-33.7,71.6c-0.6,2.6-1.1,5.3-1.9,7.9
		c-0.9,3.1-2.6,4.6-4.8,4.5c-2.4-0.2-4.1-2.1-3.9-5.6c0.3-5.7,0.6-11.5,1.5-17.2c3.6-24.3,11.8-47,23.2-68.7
		c12-22.7,27.1-43.4,44-62.6c14.7-16.7,30.5-32.3,47.2-46.9C1200,960.3,1200,975,1200,989.8z"/>
	<path d="M913.9,1200c0.5-1.8,1-3.7,1.7-5.5c7-19.2,11.4-39,13.2-59.3c0.2-2.5,0.5-5.1,0.8-7.6c0.2-1.1,0.4-2.2,0.9-3.2
		c0.9-1.7,3.4-1.9,4.5-0.3c0.8,1.1,1.4,2.5,1.7,3.9c2,8.4,3.4,17,3.7,25.6c0.4,10.9,0.2,21.7,0,32.6c-0.1,4.6-1,9.2-1.5,13.8
		C930.6,1200,922.2,1200,913.9,1200z"/>
	<path d="M1038.7,1200c0.7-5.4,1.7-10.7,2-16.1c0.6-8.9,0.8-17.9,1.2-26.8c0.1-1.4,0-2.9,0.3-4.3c0.5-2.4,2.1-3.9,4.1-4
		c2.1-0.1,3.8,1.1,4.4,3.6c0.5,1.8,0.7,3.8,1,5.7c1.7,12.8,2.1,25.8,2.8,38.7c0.1,1.1,0.3,2.2,0.4,3.3
		C1049.6,1200,1044.2,1200,1038.7,1200z"/>
	<path d="M993.6,0c-1,4.5-1.9,9-2.9,13.5c-0.2,1.1-0.6,2.2-1.1,3.1c-1.4,2.5-4.4,2.6-5.6,0c-0.6-1.3-1-2.7-1.3-4.1
		c-0.9-4.2-1.7-8.4-2.6-12.6C984.6,0,989.1,0,993.6,0z"/>
	<path d="M1115.7,166.1c-1.7,1.1-1.8,3-2.4,4.6c-4,10.4-7.7,21-12.1,31.3c-13,30.4-28.6,59.3-46.4,87.2c-9.6,15-18.8,30.1-28,45.3
		c-7.4,12.2-13.6,25-18.7,38.3c-6.9,17.9-9.8,36.4-8.7,55.5c0.8,12.6,2.5,25.1,5,37.6c4.1,21,8.4,42,12.4,63.1
		c3.8,19.6,7,39.4,9,59.3c1.4,14.3,2.5,28.7,2.1,43.1c-0.7,23.4-3.4,46.6-11.5,68.8c-4.5,12.6-10.3,24.5-18.4,35.1
		c-1,1.3-2,2.6-3.2,3.6c-2.2,1.8-4.8,1-5.7-1.7c-0.4-1.2-0.6-2.5-0.6-3.8c-0.6-31.4-7.8-61.5-17.5-91.1
		c-6.8-20.8-14.2-41.5-21.4-62.1c-6.2-17.7-12.1-35.4-16.3-53.7c-4.1-17.6-6.8-35.5-7.6-53.6c-1.5-30,2-59.4,10.9-88.1
		c7-22.8,17.7-43.9,30.7-63.8c10.6-16.2,22.7-31.3,34.9-46.3c12.6-15.5,25.5-30.8,37.6-46.7c15.6-20.5,29.8-42,42-64.8
		c12.2-22.7,21.5-46.4,26.2-71.8c3.5-18.7,4.3-37.5,2.6-56.4c-0.3-3.7-0.9-7.3-1.1-11c-0.4-5.9,1.8-7.4,7.2-5
		c11.1,5,20.5,12.4,28.7,21.3c14.7,16,24.9,34.8,32.6,55c7.2,18.9,12.5,38.3,15,58.4c1.7,13.3,2.4,26.7,1.8,40.2
		c-1.4,29.7-9.4,57.7-22.2,84.3c-3.8,7.8-7.8,15.4-12.1,22.9c-14.5,25.7-25.4,52.7-31.7,81.5c-3.4,15.2-5.4,30.5-5.5,46.1
		c-0.1,16.8,0.5,33.6,1.8,50.3c1.9,24.9,3.3,49.8,2.1,74.8c-1,20.2-4.4,40.1-11.4,59.1c-4.6,12.4-10.6,24-18.7,34.4
		c-1.1,1.4-2.3,2.7-3.5,3.9c-1,0.9-2.3,1.2-3.5,0.5c-1.3-0.8-1.6-2-1.3-3.3c0.4-1.5,1-3,1.6-4.5c5-11.2,8.6-22.8,10.2-34.9
		c0.7-5.4,1.2-10.8,1.5-16.2c1.2-24.7-2.6-48.8-8.1-72.7c-4.3-18.4-8.8-36.7-13-55.1c-3.4-14.5-5.9-29.2-7.3-44
		c-1.2-12.9-1.5-25.8-0.8-38.8c1.5-27,7-53.2,14.4-79.1c3-10.6,6.2-21.2,9.5-31.7c4.4-14.1,7.7-28.4,10.5-42.9
		c3.7-19.3,7.2-38.7,9.7-58.2C1116.5,168.5,1116.5,168.5,1115.7,166.1z"/>
</g>
</svg>
